<svg xmlns="http://www.w3.org/2000/svg" viewBox="0 0 170.15 40.13"><defs><style>.cls-1{fill:#4b4b4b;}.cls-2{fill:#024f88;stroke:#024f88;stroke-miterlimit:10;}</style></defs><title>CMSgovlogo</title><g id="Layer_2" data-name="Layer 2"><g id="Layer_1-2" data-name="Layer 1"><path class="cls-1" d="M93.31,26.88a2.52,2.52,0,0,1,2.52,2.54,2.46,2.46,0,0,1-.74,1.79,2.5,2.5,0,0,1-3.57,0,2.56,2.56,0,0,1,0-3.6A2.43,2.43,0,0,1,93.31,26.88Z"/><path class="cls-1" d="M118.92,9.08h2.87V26.86a21,21,0,0,1-.82,6.87,8.93,8.93,0,0,1-3.92,4.74,12.87,12.87,0,0,1-6.71,1.66,15.35,15.35,0,0,1-5.16-.81,10.32,10.32,0,0,1-3.72-2.18,13,13,0,0,1-2.65-4h3.12a8.24,8.24,0,0,0,3.29,3.28,10.56,10.56,0,0,0,5,1.07,10.32,10.32,0,0,0,5-1.09,6.71,6.71,0,0,0,2.88-2.75,12.26,12.26,0,0,0,.86-5.34V27.15a10.87,10.87,0,0,1-4,3.15,11.76,11.76,0,0,1-10.76-.43A10.85,10.85,0,0,1,100,25.75a11.24,11.24,0,0,1-1.48-5.68A11.61,11.61,0,0,1,110.07,8.51a10.68,10.68,0,0,1,4.67,1A12.88,12.88,0,0,1,118.92,13Zm-8.47,2.19a9.08,9.08,0,0,0-4.53,1.18,8.54,8.54,0,0,0-3.28,3.26,8.92,8.92,0,0,0-1.19,4.5,8.12,8.12,0,0,0,2.46,6.07,9.69,9.69,0,0,0,12.75,0,8.4,8.4,0,0,0,2.41-6.25,9.06,9.06,0,0,0-1.11-4.5,8.07,8.07,0,0,0-3.14-3.13A8.73,8.73,0,0,0,110.45,11.28Z"/><path class="cls-1" d="M136.4,8.51A11.05,11.05,0,0,1,145,12.24,11.61,11.61,0,0,1,148,20.3a11.61,11.61,0,0,1-3.26,8.17,11.79,11.79,0,0,1-16.76,0,11.61,11.61,0,0,1-3.26-8.17,11.58,11.58,0,0,1,3.08-8A11,11,0,0,1,136.4,8.51Zm0,2.81A8.28,8.28,0,0,0,130.24,14a8.84,8.84,0,0,0-2.57,6.4,9.07,9.07,0,0,0,1.17,4.51A8.3,8.3,0,0,0,132,28.1a9,9,0,0,0,8.77,0,8.31,8.31,0,0,0,3.17-3.23,9.07,9.07,0,0,0,1.17-4.51,8.82,8.82,0,0,0-2.58-6.4A8.29,8.29,0,0,0,136.39,11.32Z"/><path class="cls-1" d="M149.13,9.08h3.06l7.49,16.26,7.4-16.26h3.08L159.94,31.39h-.53Z"/><path class="cls-2" d="M29.72,6.56l-4,3.83a12.43,12.43,0,0,0-9.22-4.33A10.1,10.1,0,0,0,6.24,16.3a10.77,10.77,0,0,0,1.31,5.36,9.4,9.4,0,0,0,3.71,3.67,10.77,10.77,0,0,0,5.33,1.33,11,11,0,0,0,4.57-.93,16.37,16.37,0,0,0,4.55-3.4L29.6,26.4a21.37,21.37,0,0,1-6.32,4.52,17.25,17.25,0,0,1-6.79,1.26A15.63,15.63,0,0,1,5,27.72,15.44,15.44,0,0,1,.5,16.29a15.65,15.65,0,0,1,2-8A15.17,15.17,0,0,1,8.39,2.63,16.48,16.48,0,0,1,16.58.5,17.39,17.39,0,0,1,29.72,6.56Z"/><path class="cls-2" d="M37.67,1.26h5.59l7,21,7.06-21h5.59L68,31.43H62.42L59.18,12.37,52.77,31.43H47.71L41.36,12.37,38,31.43h-5.6Z"/><path class="cls-2" d="M88.38,5.36,84.12,9.11Q81.88,6,79.56,6a2.77,2.77,0,0,0-1.85.6A1.76,1.76,0,0,0,77,8a2.33,2.33,0,0,0,.51,1.44,39.06,39.06,0,0,0,4.21,3.88Q85,16,85.7,16.74a12,12,0,0,1,2.48,3.37,8.42,8.42,0,0,1,.73,3.52,8.06,8.06,0,0,1-2.57,6.13,9.36,9.36,0,0,1-6.69,2.42A10,10,0,0,1,74,30.61a12.47,12.47,0,0,1-4.1-5l4.83-2.91q2.18,4,5,4a3.69,3.69,0,0,0,2.49-.86,2.56,2.56,0,0,0,1-2,3.43,3.43,0,0,0-.76-2.05,21.94,21.94,0,0,0-3.35-3.14q-4.93-4-6.37-6.2a7.88,7.88,0,0,1-1.44-4.36,7.13,7.13,0,0,1,2.39-5.38A8.3,8.3,0,0,1,79.65.5a9.31,9.31,0,0,1,4.3,1A15.67,15.67,0,0,1,88.38,5.36Z"/></g></g></svg>